<svg width="16" height="16" viewBox="0 0 16 16" fill="none" xmlns="http://www.w3.org/2000/svg">
                                                                        <path d="M8.27563 11.9209L11.4281 13.9179C11.8311 14.1729 12.3311 13.7934 12.2116 13.3229L11.3011 9.74042C11.2754 9.64063 11.2784 9.53561 11.3097 9.43743C11.341 9.33925 11.3994 9.2519 11.4781 9.18542L14.3051 6.83292C14.6761 6.52392 14.4851 5.90742 14.0076 5.87642L10.3161 5.63642C10.2167 5.62937 10.1214 5.59424 10.0412 5.53511C9.961 5.47598 9.89925 5.39528 9.86313 5.30242L8.48613 1.83542C8.44864 1.73689 8.38208 1.65209 8.29528 1.59225C8.20849 1.53241 8.10555 1.50037 8.00013 1.50037C7.89471 1.50037 7.79177 1.53241 7.70498 1.59225C7.61818 1.65209 7.55163 1.73689 7.51413 1.83542L6.13713 5.30242C6.10109 5.39538 6.03937 5.47618 5.95916 5.5354C5.87896 5.59462 5.78358 5.62983 5.68413 5.63692L1.99263 5.87692C1.51563 5.90742 1.32363 6.52392 1.69513 6.83292L4.52213 9.18592C4.60079 9.25236 4.65911 9.33962 4.69042 9.4377C4.72173 9.53578 4.72475 9.64071 4.69913 9.74042L3.85513 13.0629C3.71163 13.6274 4.31213 14.0829 4.79513 13.7764L7.72513 11.9209C7.80748 11.8686 7.90305 11.8408 8.00063 11.8408C8.09822 11.8408 8.19378 11.8686 8.27613 11.9209H8.27563Z" fill="#FF8A00"></path>
                                                                    </svg>